<svg xmlns="http://www.w3.org/2000/svg" viewBox="0 0 201.36 63.27"><defs><style>.cls-1{fill:#fafafa;}</style></defs><g id="Capa_2" data-name="Capa 2"><g id="Wordmark"><path class="cls-1" d="M14.18,27.14,34.65,3a4,4,0,0,1,3-1.4h4a4,4,0,0,1,3,6.59L28.67,26.43a2,2,0,0,0-.14,2.44L47.48,56.1a4,4,0,0,1-3.26,6.24H39.34a4,4,0,0,1-3.25-1.68L20.89,39a2,2,0,0,0-3.11-.17l-4.86,5.49a2,2,0,0,0-.49,1.32V58.37a4,4,0,0,1-4,4H4a4,4,0,0,1-4-4V5.61a4,4,0,0,1,4-4H8.46a4,4,0,0,1,4,4V26.5A1,1,0,0,0,14.18,27.14Z"/><path class="cls-1" d="M65.18,62.34H60.69a4,4,0,0,1-4-4V5.61a4,4,0,0,1,4-4h4.49a4,4,0,0,1,4,4V58.37A4,4,0,0,1,65.18,62.34Z"/><path class="cls-1" d="M88.17,62.34H83.69a4,4,0,0,1-4-4V5.61a4,4,0,0,1,4-4h20.88c14,0,22.66,6.6,22.66,19.19S118.52,40,104.57,40H92.14V58.37A4,4,0,0,1,88.17,62.34Zm15.72-32.88c7.27,0,11-3.22,11-8.63s-3.72-8.62-11-8.62H94.13a2,2,0,0,0-2,2V27.47a2,2,0,0,0,2,2Z"/><path class="cls-1" d="M159.94.72C176.59.72,188.6,13.65,188.6,32s-12,31.28-28.66,31.28S131.2,50.34,131.2,32,143.2.72,159.94.72Zm0,10.9c-9.55,0-16.23,8-16.23,20.37s6.68,20.38,16.23,20.38S176.09,44.42,176.09,32,169.41,11.62,159.94,11.62Z"/><path class="cls-1" d="M195.69,11.23a5.8,5.8,0,0,1-2.9-.72,5.13,5.13,0,0,1-2-2A5.63,5.63,0,0,1,190,5.62a5.64,5.64,0,0,1,.75-2.92,5.13,5.13,0,0,1,2-2,6.2,6.2,0,0,1,5.8,0,5.22,5.22,0,0,1,2,2,5.73,5.73,0,0,1,.74,2.92,5.72,5.72,0,0,1-.74,2.91,5.22,5.22,0,0,1-2,2A5.8,5.8,0,0,1,195.69,11.23Zm0-1.11A4.49,4.49,0,0,0,199,8.9a4.41,4.41,0,0,0,1.24-3.28A4.42,4.42,0,0,0,199,2.35a4.93,4.93,0,0,0-6.53,0,4.39,4.39,0,0,0-1.25,3.28,4.27,4.27,0,0,0,4.51,4.5Zm-1.94-1.56v-6H196a2.17,2.17,0,0,1,1.52.49,1.51,1.51,0,0,1,.51,1.13,1.61,1.61,0,0,1-.26.92,1.71,1.71,0,0,1-.82.6V6a.82.82,0,0,1,.66.29,1.18,1.18,0,0,1,.2.7v1.6h-1.11V6.94a.5.5,0,0,0-.56-.57h-1.32V8.56Zm1.11-3.21H196a.82.82,0,0,0,.69-.28.93.93,0,0,0,.23-.62.92.92,0,0,0-.23-.63.88.88,0,0,0-.69-.26h-1.18Z"/></g></g></svg>