<svg xmlns="http://www.w3.org/2000/svg" viewBox="0 0 137.69 170.92"><defs><style>.cls-1{fill:#09090b;}</style></defs><g id="Capa_2" data-name="Capa 2"><g id="Icon"><path class="cls-1" d="M0,12V153.18c0,5.74,6.07,8.2,9,3.64L55.54,83.66V12c0-6.63-4.48-12-10-12H10C4.48,0,0,5.37,0,12Z"/><path class="cls-1" d="M123.69,0H123a14,14,0,0,0-11.37,5.83L55.67,83.66h64a18,18,0,0,0,18-18V14A14,14,0,0,0,123.69,0Z"/><path class="cls-1" d="M69.67,170.92h50a18,18,0,0,0,18-18v-2.38A18,18,0,0,0,130,135.8L55.67,83.66v73.26A14,14,0,0,0,69.67,170.92Z"/></g></g></svg>