<svg xmlns="http://www.w3.org/2000/svg" viewBox="0 0 201.36 63.27"><defs><style>.cls-1{fill:#09090b;}</style></defs><g id="Capa_2" data-name="Capa 2"><g id="Wordmark"><path d="M14.28,26.87,34.92,2.59a4,4,0,0,1,3-1.41h4a4,4,0,0,1,3,6.63L28.88,26.15a2,2,0,0,0-.13,2.46L47.84,56.05a4,4,0,0,1-3.28,6.28H39.64a4,4,0,0,1-3.27-1.69L21.05,38.85a2,2,0,0,0-3.14-.17L13,44.22a2,2,0,0,0-.5,1.32V58.33a4,4,0,0,1-4,4H4a4,4,0,0,1-4-4V5.18a4,4,0,0,1,4-4H8.52a4,4,0,0,1,4,4v21A1,1,0,0,0,14.28,26.87Z"/><path d="M65.67,62.33H61.15a4,4,0,0,1-4-4V5.18a4,4,0,0,1,4-4h4.52a4,4,0,0,1,4,4V58.33A4,4,0,0,1,65.67,62.33Z"/><path d="M88.84,62.33H84.32a4,4,0,0,1-4-4V5.18a4,4,0,0,1,4-4h21c14,0,22.83,6.64,22.83,19.33s-8.78,19.34-22.83,19.34H92.84V58.33A4,4,0,0,1,88.84,62.33ZM104.68,29.2c7.32,0,11.07-3.23,11.07-8.69s-3.75-8.68-11.07-8.68H94.84a2,2,0,0,0-2,2V27.2a2,2,0,0,0,2,2Z"/><path d="M161.15.24c16.78,0,28.87,13,28.87,31.52s-12.09,31.51-28.87,31.51-29-13-29-31.51S144.28.24,161.15.24Zm0,11c-9.63,0-16.35,8-16.35,20.53s6.72,20.52,16.35,20.52,16.27-8,16.27-20.52S170.69,11.23,161.15,11.23Z"/><path class="cls-1" d="M14.28,26.87,34.92,2.59a4,4,0,0,1,3-1.41h4a4,4,0,0,1,3,6.63L28.88,26.15a2,2,0,0,0-.13,2.46L47.84,56.05a4,4,0,0,1-3.28,6.28H39.64a4,4,0,0,1-3.27-1.69L21.05,38.85a2,2,0,0,0-3.14-.17L13,44.22a2,2,0,0,0-.5,1.32V58.33a4,4,0,0,1-4,4H4a4,4,0,0,1-4-4V5.18a4,4,0,0,1,4-4H8.52a4,4,0,0,1,4,4v21A1,1,0,0,0,14.28,26.87Z"/><path class="cls-1" d="M65.67,62.33H61.15a4,4,0,0,1-4-4V5.18a4,4,0,0,1,4-4h4.52a4,4,0,0,1,4,4V58.33A4,4,0,0,1,65.67,62.33Z"/><path class="cls-1" d="M88.84,62.33H84.32a4,4,0,0,1-4-4V5.18a4,4,0,0,1,4-4h21c14,0,22.83,6.64,22.83,19.33s-8.78,19.34-22.83,19.34H92.84V58.33A4,4,0,0,1,88.84,62.33ZM104.68,29.2c7.32,0,11.07-3.23,11.07-8.69s-3.75-8.68-11.07-8.68H94.84a2,2,0,0,0-2,2V27.2a2,2,0,0,0,2,2Z"/><path class="cls-1" d="M161.15.24c16.78,0,28.87,13,28.87,31.52s-12.09,31.51-28.87,31.51-29-13-29-31.51S144.28.24,161.15.24Zm0,11c-9.63,0-16.35,8-16.35,20.53s6.72,20.52,16.35,20.52,16.27-8,16.27-20.52S170.69,11.23,161.15,11.23Z"/><path class="cls-1" d="M195.69,11.23a5.8,5.8,0,0,1-2.9-.72,5.13,5.13,0,0,1-2-2A5.63,5.63,0,0,1,190,5.62a5.64,5.64,0,0,1,.75-2.92,5.13,5.13,0,0,1,2-2,6.2,6.2,0,0,1,5.8,0,5.22,5.22,0,0,1,2,2,5.73,5.73,0,0,1,.74,2.92,5.72,5.72,0,0,1-.74,2.91,5.22,5.22,0,0,1-2,2A5.8,5.8,0,0,1,195.69,11.23Zm0-1.11A4.49,4.49,0,0,0,199,8.9a4.41,4.41,0,0,0,1.24-3.28A4.42,4.42,0,0,0,199,2.35a4.93,4.93,0,0,0-6.53,0,4.39,4.39,0,0,0-1.25,3.28,4.27,4.27,0,0,0,4.51,4.5Zm-1.94-1.56v-6H196a2.17,2.17,0,0,1,1.52.49,1.51,1.51,0,0,1,.51,1.13,1.61,1.61,0,0,1-.26.92,1.71,1.71,0,0,1-.82.6V6a.82.82,0,0,1,.66.29,1.18,1.18,0,0,1,.2.7v1.6h-1.11V6.94a.5.5,0,0,0-.56-.57h-1.32V8.56Zm1.11-3.21H196a.82.82,0,0,0,.69-.28.93.93,0,0,0,.23-.62.92.92,0,0,0-.23-.63.88.88,0,0,0-.69-.26h-1.18Z"/></g></g></svg>